<svg width="37" height="40" viewBox="0 0 37 40" fill="none" xmlns="http://www.w3.org/2000/svg">
<path d="M36.7071 8.70711C37.0976 8.31658 37.0976 7.68342 36.7071 7.29289L30.3431 0.928932C29.9526 0.538408 29.3195 0.538408 28.9289 0.928932C28.5384 1.31946 28.5384 1.95262 28.9289 2.34315L34.5858 8L28.9289 13.6569C28.5384 14.0474 28.5384 14.6805 28.9289 15.0711C29.3195 15.4616 29.9526 15.4616 30.3431 15.0711L36.7071 8.70711ZM1 9H36V7H1V9Z" fill="white"/>
<path d="M0.292892 32.7071C-0.0976295 32.3166 -0.0976295 31.6834 0.292892 31.2929L6.65685 24.9289C7.04738 24.5384 7.68054 24.5384 8.07107 24.9289C8.46159 25.3195 8.46159 25.9526 8.07107 26.3431L2.41422 32L8.07107 37.6569C8.46159 38.0474 8.46159 38.6805 8.07107 39.0711C7.68054 39.4616 7.04738 39.4616 6.65685 39.0711L0.292892 32.7071ZM36 33H1V31H36V33Z" fill="white"/>
</svg>
