<svg width="23" height="23" viewBox="0 0 23 23" fill="none" xmlns="http://www.w3.org/2000/svg">
<path d="M21.735 15.8189C20.1633 15.8189 18.6428 15.5633 17.2244 15.1033C17.0022 15.028 16.7633 15.0168 16.5351 15.0711C16.3068 15.1253 16.0985 15.2428 15.9339 15.41L15.909 15.4413C14.749 16.8967 12.711 17.39 11.1991 16.3046C9.29677 14.9389 7.57497 13.1794 6.26945 11.2086C5.51648 10.0719 5.84775 8.58379 6.88599 7.69996L7.61556 7.07889C8.21429 6.38889 7.91267 5.54752 7.84921 5.29365C7.48413 3.83333 7.48413 2.84944 7.48413 1.27778C7.48413 0.547619 6.63167 0 5.94167 0H1.52056C0.830555 0 0 0.306667 0 1.265C0 13.1356 9.87722 23 21.735 23C22.6422 23 23 22.195 23 21.4922V17.0839C23 16.3939 22.425 15.8189 21.735 15.8189Z" fill="white"/>
</svg>
