<svg xmlns="http://www.w3.org/2000/svg" width="800" height="800" viewBox="0 0 800 800" version="1.1"><path d="M 383 144 L 383 243 204 243 L 25 243 25 452 L 25 661 165 661 L 305 661 305 700 L 305 739 259.500 739 L 214 739 214 748.500 L 214 758 364.500 758 L 515 758 515 748.500 L 515 739 469.500 739 L 424 739 424 700 L 424 661 486.906 661 C 548.961 661, 549.806 661.027, 549.299 662.966 C 548.413 666.351, 550.957 674.306, 554.463 679.117 C 567.566 697.102, 595.400 688.907, 597.724 666.381 L 598.278 661.018 650.889 660.759 L 703.500 660.500 703.752 451.750 L 704.005 243 570.002 243 L 436 243 436 200 L 436 157 426.500 157 L 417 157 417 200 L 417 243 410 243 L 403 243 403 154 L 403 65 573 65 L 743 65 743 383 L 743 701 588 701 L 433 701 433 711.003 L 433 721.006 597.750 720.753 L 762.500 720.500 762.751 382.750 L 763.003 45 573.001 45 L 383 45 383 144 M 508 96.500 L 508 106 520.500 106 L 533 106 533 96.500 L 533 87 520.500 87 L 508 87 508 96.500 M 557 96.500 L 557 106 598 106 L 639 106 639 96.500 L 639 87 598 87 L 557 87 557 96.500 M 44.658 275.750 C 43.806 292.459, 43.810 544.559, 44.663 598.836 L 45.326 641 364.500 641 L 683.674 641 684.337 598.836 C 685.190 544.559, 685.194 292.459, 684.342 275.750 L 683.691 263 364.500 263 L 45.309 263 44.658 275.750 M 355 282.500 L 355 292 365.500 292 L 376 292 376 282.500 L 376 273 365.500 273 L 355 273 355 282.500 M 348 612.500 L 348 622 364 622 L 380 622 380 612.500 L 380 603 364 603 L 348 603 348 612.500 M 324 700 L 324 739 364 739 L 404 739 404 700 L 404 661 364 661 L 324 661 324 700 M 569.422 663.455 C 568.635 666.589, 570.408 669, 573.500 669 C 576.378 669, 578.245 666.758, 577.827 663.805 C 577.562 661.940, 576.791 661.441, 573.784 661.192 C 570.511 660.920, 569.990 661.190, 569.422 663.455" stroke="none" fill="#0c5cc4" fill-rule="evenodd"/><path d="M 762.751 387.702 L 762.500 720.500 667.750 720.755 L 573 721.010 573 727.510 L 573 734.010 674.250 733.755 L 775.500 733.500 775.500 394.500 L 775.500 55.500 769.251 55.202 L 763.003 54.905 762.751 387.702 M 573 76 L 573 87 606 87 L 639 87 639 96.500 L 639 106 606 106 L 573 106 573 114.974 L 573 123.949 644.395 124.224 C 712.991 124.489, 715.874 124.575, 717.895 126.405 L 720 128.310 720 383.155 C 720 636.667, 719.990 638.010, 718 640 C 716.447 641.553, 714.667 642, 710.038 642 L 704.075 642 703.788 651.250 L 703.500 660.500 655 661 L 606.500 661.500 606.273 668.360 C 605.761 683.832, 594.678 696.780, 580.356 698.640 C 577.685 698.987, 574.825 699.646, 574 700.105 C 573.175 700.564, 610.862 700.953, 657.750 700.970 L 743 701 743 383 L 743 65 658 65 L 573 65 573 76 M 44 432.500 L 44 585 364.500 585 L 685 585 685 432.500 L 685 280 530.500 280 L 376 280 376 286 L 376 292 365.500 292 L 355 292 355 286 L 355 280 199.500 280 L 44 280 44 432.500 M 382 703 L 382 739 393 739 L 404 739 404 703 L 404 667 393 667 L 382 667 382 703 M 424 703 L 424 739 428.771 739 L 433.541 739 433.721 703 L 433.901 667 428.950 667 L 424 667 424 703 M 515 751.500 L 515 758 431 758 L 347 758 347 761.500 L 347 765 434.500 765 L 522 765 522 755 L 522 745 518.500 745 L 515 745 515 751.500" stroke="none" fill="#4ce3fb" fill-rule="evenodd"/></svg>