<svg xmlns="http://www.w3.org/2000/svg" width="800" height="800" viewBox="0 0 800 800" version="1.1"><path d="M 33 406.628 L 33 678.256 210.250 677.520 C 307.738 677.115, 387.590 676.705, 387.700 676.609 C 387.809 676.513, 388.034 554.611, 388.200 405.717 L 388.500 135 210.750 135 L 33 135 33 406.628 M 405 406.628 L 405 678.256 582.250 677.520 C 679.737 677.115, 759.590 676.705, 759.700 676.609 C 759.809 676.513, 760.034 554.611, 760.200 405.717 L 760.500 135 582.750 135 L 405 135 405 406.628 M 53 406.500 L 53 658 211 658 L 369 658 369 406.500 L 369 155 211 155 L 53 155 53 406.500 M 425 406.500 L 425 658 583 658 L 741 658 741 406.500 L 741 155 583 155 L 425 155 425 406.500 M 121 229.500 L 121 239 147.500 239 L 174 239 174 229.500 L 174 220 147.500 220 L 121 220 121 229.500 M 209 229.500 L 209 239 256.500 239 L 304 239 304 229.500 L 304 220 256.500 220 L 209 220 209 229.500 M 493 229.500 L 493 239 519.500 239 L 546 239 546 229.500 L 546 220 519.500 220 L 493 220 493 229.500 M 581 229.500 L 581 239 628.500 239 L 676 239 676 229.500 L 676 220 628.500 220 L 581 220 581 229.500 M 121 286.500 L 121 296 211.500 296 L 302 296 302 286.500 L 302 277 211.500 277 L 121 277 121 286.500 M 493 286.500 L 493 296 583.500 296 L 674 296 674 286.500 L 674 277 583.500 277 L 493 277 493 286.500 M 121 344.500 L 121 354 175.500 354 L 230 354 230 344.500 L 230 335 175.500 335 L 121 335 121 344.500 M 265 344.500 L 265 354 283.500 354 L 302 354 302 344.500 L 302 335 283.500 335 L 265 335 265 344.500 M 493 344.500 L 493 354 547.500 354 L 602 354 602 344.500 L 602 335 547.500 335 L 493 335 493 344.500 M 637 344.500 L 637 354 655.500 354 L 674 354 674 344.500 L 674 335 655.500 335 L 637 335 637 344.500 M 121 402 L 121 412 154.500 412 L 188 412 188 402 L 188 392 154.500 392 L 121 392 121 402 M 227 402 L 227 412 264.500 412 L 302 412 302 402 L 302 392 264.500 392 L 227 392 227 402 M 493 402 L 493 412 526.500 412 L 560 412 560 402 L 560 392 526.500 392 L 493 392 493 402 M 599 402 L 599 412 636.500 412 L 674 412 674 402 L 674 392 636.500 392 L 599 392 599 402 M 121 459.500 L 121 469 211.500 469 L 302 469 302 459.500 L 302 450 211.500 450 L 121 450 121 459.500 M 493 459.500 L 493 469 583.500 469 L 674 469 674 459.500 L 674 450 583.500 450 L 493 450 493 459.500 M 121 517.500 L 121 527 154.500 527 L 188 527 188 517.500 L 188 508 154.500 508 L 121 508 121 517.500 M 227 517.500 L 227 527 264.500 527 L 302 527 302 517.500 L 302 508 264.500 508 L 227 508 227 517.500 M 493 517.500 L 493 527 526.500 527 L 560 527 560 517.500 L 560 508 526.500 508 L 493 508 493 517.500 M 599 517.500 L 599 527 636.500 527 L 674 527 674 517.500 L 674 508 636.500 508 L 599 508 599 517.500 M 121 574.500 L 121 584 211.500 584 L 302 584 302 574.500 L 302 565 211.500 565 L 121 565 121 574.500 M 493 574.500 L 493 584 583.500 584 L 674 584 674 574.500 L 674 565 583.500 565 L 493 565 493 574.500" stroke="none" fill="#0c5cc4" fill-rule="evenodd"/><path d="M 355 401 L 355 639 283.500 639 L 212 639 212 648.500 L 212 658 290.500 658 L 369 658 369 410.500 L 369 163 362 163 L 355 163 355 401 M 388.667 163.667 C 388.300 164.033, 388 279.681, 388 420.661 L 388 676.989 300.250 677.245 L 212.500 677.500 212.200 683.250 L 211.900 689 305.950 689 L 400 689 400 426 L 400 163 394.667 163 C 391.733 163, 389.033 163.300, 388.667 163.667 M 727 401 L 727 639 655.500 639 L 584 639 584 648.500 L 584 658 662.500 658 L 741 658 741 410.500 L 741 163 734 163 L 727 163 727 401 M 760.667 163.667 C 760.300 164.033, 760 279.681, 760 420.661 L 760 676.989 672.250 677.245 L 584.500 677.500 584.200 683.250 L 583.900 689 677.950 689 L 772 689 772 426 L 772 163 766.667 163 C 763.733 163, 761.033 163.300, 760.667 163.667" stroke="none" fill="#47dbf7" fill-rule="evenodd"/></svg>