<svg xmlns="http://www.w3.org/2000/svg" width="800" height="800" viewBox="0 0 800 800" version="1.1"><path d="M 442 130 L 442 135 449 135 L 456 135 456 130 L 456 125 449 125 L 442 125 442 130 M 475 130 L 475 135 481 135 L 487 135 487 130 L 487 125 481 125 L 475 125 475 130 M 613 226.500 L 613 289 635.500 289 L 658 289 658 226.500 L 658 164 652 164 L 646 164 646 217.500 L 646 271 636.500 271 L 627 271 627 217.500 L 627 164 620 164 L 613 164 613 226.500 M 672 437.986 C 672 547.610, 671.821 562.446, 670.465 565.068 C 668.654 568.569, 669.630 569.350, 675.155 568.820 L 678.500 568.500 678.500 441.500 L 678.500 314.500 675.250 314.187 L 672 313.873 672 437.986 M 698 450.937 C 698 559.919, 697.744 588.001, 696.750 588.004 C 696.063 588.005, 688.975 602.729, 681 620.723 C 673.025 638.717, 665.502 654.625, 664.283 656.075 L 662.066 658.710 664.283 663.105 C 666.908 668.308, 670.074 669.369, 672.357 665.811 C 673.172 664.540, 680.852 647.687, 689.423 628.359 L 705.007 593.218 704.754 453.859 L 704.500 314.500 701.250 314.187 L 698 313.873 698 450.937 M 640 493.500 L 640 516 649 516 L 658 516 658 493.500 L 658 471 649 471 L 640 471 640 493.500 M 640 534 L 640 543 649 543 L 658 543 658 534 L 658 525 649 525 L 640 525 640 534 M 654.150 601.899 C 650.768 609.543, 648.031 616.406, 648.068 617.149 C 648.105 617.892, 649.612 621.650, 651.417 625.500 L 654.699 632.500 656.221 629 C 657.059 627.075, 661.401 617.277, 665.872 607.226 C 670.342 597.176, 674 588.739, 674 588.476 C 674 588.214, 670.918 588, 667.150 588 L 660.301 588 654.150 601.899 M 470 648.500 L 470 658 538.493 658 L 606.987 658 602.268 648.500 L 597.549 639 533.774 639 L 470 639 470 648.500 M 470.667 677.667 C 470.300 678.033, 470 680.733, 470 683.667 L 470 689 546.517 689 L 623.034 689 620.386 683.750 C 618.929 680.862, 617.234 678.169, 616.619 677.765 C 615.223 676.849, 471.582 676.752, 470.667 677.667" stroke="none" fill="#4be2fb" fill-rule="evenodd"/><path d="M 123 367.500 L 123 639 207 639 L 291 639 291 658.629 L 291 678.258 455.499 677.879 L 619.997 677.500 619.999 667.750 L 620 658 465.500 658 L 311 658 311 406.500 L 311 155 469 155 L 627 155 627 213 L 627 271 636.500 271 L 646 271 646.002 224.750 C 646.004 199.313, 646.300 168.713, 646.662 156.750 L 647.319 135 561.246 135 L 475.173 135 475.738 115.500 L 476.304 96 299.652 96 L 123 96 123 367.500 M 143 367.500 L 143 619 217 619 L 291 619 291 582 L 291 545 251 545 L 211 545 211 535.500 L 211 526 251 526 L 291 526 291 478 L 291 430 251 430 L 211 430 211 420.500 L 211 411 251 411 L 291 411 291 363 L 291 315 251 315 L 211 315 211 305.500 L 211 296 251 296 L 291 296 291 276.500 L 291 257 251 257 L 211 257 211 247.500 L 211 238 251 238 L 291 238 291 186.500 L 291 135 373.500 135 L 456 135 456 125.500 L 456 116 299.500 116 L 143 116 143 367.500 M 211 190.500 L 211 200 237.500 200 L 264 200 264 190.500 L 264 181 237.500 181 L 211 181 211 190.500 M 379 229.500 L 379 239 405.500 239 L 432 239 432 229.500 L 432 220 405.500 220 L 379 220 379 229.500 M 467 229.500 L 467 239 514.500 239 L 562 239 562 229.500 L 562 220 514.500 220 L 467 220 467 229.500 M 379 286.500 L 379 296 469.500 296 L 560 296 560 286.500 L 560 277 469.500 277 L 379 277 379 286.500 M 609.004 438.180 L 609 587.861 611.161 588.180 C 612.979 588.449, 615.574 593.833, 627.496 622.078 C 635.291 640.545, 642.026 656.234, 642.464 656.941 C 642.901 657.648, 645.277 659.120, 647.744 660.211 C 651.703 661.962, 652.747 662.051, 656.629 660.964 C 659.247 660.231, 662.136 658.467, 663.764 656.607 C 665.269 654.888, 673.025 638.750, 681 620.745 C 688.975 602.739, 696.063 588.005, 696.750 588.004 C 697.744 588.001, 698 557.323, 698 437.959 L 698 287.917 653.504 288.209 L 609.007 288.500 609.004 438.180 M 629 437.885 L 629 567.771 653.250 568.214 C 666.587 568.457, 677.837 568.482, 678.250 568.269 C 679.153 567.803, 679.252 320.745, 678.352 313.250 L 677.721 308 653.361 308 L 629 308 629 437.885 M 379 344.500 L 379 354 433.500 354 L 488 354 488 344.500 L 488 335 433.500 335 L 379 335 379 344.500 M 523 344.500 L 523 354 541.500 354 L 560 354 560 344.500 L 560 335 541.500 335 L 523 335 523 344.500 M 211 363 L 211 373 244.500 373 L 278 373 278 363 L 278 353 244.500 353 L 211 353 211 363 M 379 402 L 379 412 412.500 412 L 446 412 446 402 L 446 392 412.500 392 L 379 392 379 402 M 485 402 L 485 412 522.500 412 L 560 412 560 402 L 560 392 522.500 392 L 485 392 485 402 M 379 459.500 C 379 464.725, 378.663 469, 378.250 469 C 377.837 469, 377.500 473.275, 377.500 478.500 L 377.500 488 384.750 488 L 392 488 392 478.500 L 392 469 476 469 L 560 469 560 459.500 L 560 450 469.500 450 L 379 450 379 459.500 M 211 478.500 L 211 488 244.500 488 L 278 488 278 478.500 L 278 469 244.500 469 L 211 469 211 478.500 M 379 517.500 L 379 527 412.500 527 L 446 527 446 517.500 L 446 508 412.500 508 L 379 508 379 517.500 M 485 517.500 L 485 527 522.500 527 L 560 527 560 517.500 L 560 508 522.500 508 L 485 508 485 517.500 M 379 574.500 L 379 584 469.500 584 L 560 584 560 574.500 L 560 565 469.500 565 L 379 565 379 574.500 M 640.001 599.002 C 642.697 605.053, 647.006 614.987, 649.577 621.077 C 652.147 627.167, 654.571 631.778, 654.962 631.325 C 655.726 630.440, 674 589.331, 674 588.498 C 674 588.224, 665.247 588, 654.549 588 L 635.099 588 640.001 599.002" stroke="none" fill="#0c5cc4" fill-rule="evenodd"/></svg>