<svg xmlns="http://www.w3.org/2000/svg" width="800" height="800" viewBox="0 0 800 800" version="1.1"><path d="M 252.756 217.592 L 252.500 297.183 226.500 313.618 C 212.200 322.656, 191.877 335.513, 181.337 342.187 C 169.443 349.719, 161.762 355.228, 161.087 356.708 C 160.319 358.393, 160 404.466, 160 513.547 L 160 668 403.903 668 L 647.806 668 648.160 514.250 C 648.355 429.688, 648.286 360.275, 648.007 360 C 647.728 359.725, 646.825 358.190, 646 356.589 C 644.892 354.439, 634.442 347.304, 606 329.280 C 584.825 315.861, 566.825 304.603, 566 304.261 C 565.175 303.919, 562.744 302.491, 560.599 301.087 L 556.697 298.534 557.245 218.267 L 557.793 138 405.403 138 L 253.012 138 252.756 217.592 M 273 286.256 L 273 414.511 298.127 430.506 C 311.948 439.302, 323.932 446.657, 324.760 446.849 C 325.588 447.041, 343.803 458.427, 365.237 472.152 C 386.672 485.877, 404.760 496.970, 405.433 496.803 C 406.106 496.636, 436.209 477.657, 472.328 454.626 L 538 412.752 538 285.376 L 538 158 405.500 158 L 273 158 273 286.256 M 328 219.500 L 328 229 350.500 229 L 373 229 373 219.500 L 373 210 350.500 210 L 328 210 328 219.500 M 402 219.500 L 402 229 442 229 L 482 229 482 219.500 L 482 210 442 210 L 402 210 402 219.500 M 328 267.500 L 328 277 405 277 L 482 277 482 267.500 L 482 258 405 258 L 328 258 328 267.500 M 328 315.500 L 328 325 374.500 325 L 421 325 421 315.500 L 421 306 374.500 306 L 328 306 328 315.500 M 450 315.500 L 450 325 466 325 L 482 325 482 315.500 L 482 306 466 306 L 450 306 450 315.500 M 220.699 340.235 C 195.608 356.087, 189.172 360.574, 190.199 361.498 C 192.855 363.890, 252.123 401.210, 252.564 400.769 C 252.817 400.517, 252.905 382.273, 252.761 360.227 L 252.500 320.143 220.699 340.235 M 557 361 C 557 382.450, 557.254 400, 557.564 400 C 558.149 400, 584.082 383.493, 606.247 369.012 C 617.400 361.726, 618.776 360.534, 617.247 359.483 C 616.286 358.823, 604.925 351.617, 592 343.471 C 579.075 335.325, 566.312 327.161, 563.638 325.330 C 560.964 323.498, 558.376 322, 557.888 322 C 557.386 322, 557 338.953, 557 361 M 328 365.500 L 328 375 356 375 L 384 375 384 365.500 L 384 356 356 356 L 328 356 328 365.500 M 418 365.500 L 418 375 450 375 L 482 375 482 365.500 L 482 356 450 356 L 418 356 418 365.500 M 614 386.746 C 606.575 391.472, 577.935 409.674, 550.355 427.195 C 522.775 444.716, 499.600 459.933, 498.855 461.010 C 498.110 462.087, 476.690 475.991, 451.256 491.907 L 405.012 520.845 360.256 493.348 C 335.640 478.225, 314.600 464.823, 313.500 463.566 C 311.735 461.549, 181.961 379, 180.556 379 C 180.250 379, 180 439.525, 180 513.500 L 180 648 236.334 648 C 267.318 648, 368.343 648.300, 460.834 648.666 L 629 649.331 629 513.666 C 629 439.050, 628.663 378.035, 628.250 378.077 C 627.837 378.119, 621.425 382.020, 614 386.746 M 328 413.500 L 328 423 405 423 L 482 423 482 413.500 L 482 404 405 404 L 328 404 328 413.500" stroke="none" fill="#0c5cc4" fill-rule="evenodd"/><path d="M 521.754 292.600 L 521.500 409.201 463.285 446.350 L 405.070 483.500 405.035 490.333 C 405.016 494.092, 405.378 497.017, 405.840 496.833 C 406.302 496.650, 436.227 477.657, 472.340 454.626 L 538 412.752 538 294.376 L 538 176 530.004 176 L 522.008 176 521.754 292.600 M 557.667 176.667 C 557.300 177.033, 557 204.649, 557 238.034 L 557 298.734 560.979 301.367 C 563.167 302.815, 565.192 304, 565.479 304 C 565.765 304, 566 275.200, 566 240 L 566 176 562.167 176 C 560.058 176, 558.033 176.300, 557.667 176.667 M 557 361 C 557 382.450, 557.245 400, 557.544 400 C 557.844 400, 567.744 393.834, 579.544 386.299 L 601 372.597 601 365.799 C 601 362.059, 600.773 359, 600.496 359 C 600.218 359, 592.622 363.725, 583.616 369.500 C 574.610 375.275, 566.970 380, 566.637 380 C 566.305 380, 565.913 367.980, 565.766 353.289 L 565.500 326.578 562.102 324.289 C 560.233 323.030, 558.321 322, 557.852 322 C 557.383 322, 557 339.550, 557 361 M 656.091 390.591 C 652.566 392.959, 649.311 395.482, 648.856 396.198 C 648.402 396.914, 648.024 458.362, 648.015 532.750 L 648 668 526.500 668 L 405 668 405 676.342 L 405 684.684 533.746 685.263 C 604.557 685.581, 662.608 685.725, 662.750 685.584 C 662.891 685.442, 662.893 618.042, 662.753 535.806 L 662.500 386.285 656.091 390.591 M 551 426.627 C 523.775 443.954, 500.375 459.387, 499 460.923 C 497.625 462.459, 476.095 476.453, 451.156 492.021 C 426.217 507.589, 405.598 520.885, 405.336 521.568 C 405.073 522.251, 405.003 524.197, 405.180 525.893 L 405.500 528.977 503 467.447 C 594.049 409.989, 600.521 405.721, 600.815 402.941 C 600.988 401.304, 600.988 398.875, 600.815 397.544 C 600.523 395.298, 596.929 397.396, 551 426.627 M 611.750 420.156 L 595 431.305 595 527.152 L 595 623 500 623 L 405 623 405 636 L 405 649 517 649 L 629 649 629 529 C 629 463, 628.888 409.002, 628.750 409.003 C 628.612 409.005, 620.962 414.024, 611.750 420.156 M 205 521 L 205 533 217 533 L 229 533 229 521 L 229 509 217 509 L 205 509 205 521 M 205 592.500 L 205 629 217 629 L 229 629 229 592.500 L 229 556 217 556 L 205 556 205 592.500" stroke="none" fill="#4be3fb" fill-rule="evenodd"/></svg>