<svg width="56" height="48" viewBox="0 0 56 48" fill="none" xmlns="http://www.w3.org/2000/svg">
<path fill-rule="evenodd" clip-rule="evenodd" d="M49.5636 0.997435C52.51 -0.243172 55.6687 2.2483 55.1484 5.40267L49.0035 42.6604C48.4109 46.2528 44.4654 48.3141 41.1697 46.5239C38.4118 45.0259 34.32 42.7203 30.6323 40.3107C28.7909 39.1074 23.1525 35.2491 23.8455 32.5026C24.4381 30.1542 33.917 21.3307 39.3337 16.0833C41.4613 14.0221 40.4923 12.8313 37.9795 14.7291C31.746 19.437 21.7382 26.5949 18.4288 28.6093C15.5088 30.3865 13.9842 30.6899 12.1657 30.3865C8.84496 29.8332 5.76621 28.9763 3.25266 27.9344C-0.14459 26.5261 0.020889 21.8575 3.25036 20.4979L49.5636 0.997435Z" fill="white"/>
</svg>
