<svg width="16" height="16" viewBox="0 0 16 16" fill="none" xmlns="http://www.w3.org/2000/svg">
<path d="M13.5798 5.57767L9.68268 4.98457L7.94055 1.28611C7.89297 1.18485 7.81469 1.10287 7.71799 1.05305C7.47547 0.927676 7.18077 1.03215 7.05951 1.28611L5.31738 4.98457L1.42024 5.57767C1.31279 5.59374 1.21456 5.64679 1.13935 5.72715C1.04842 5.82502 0.998316 5.95668 1.00004 6.09321C1.00177 6.22974 1.05519 6.35996 1.14856 6.45527L3.96819 9.33399L3.30204 13.3989C3.28642 13.4935 3.29641 13.5907 3.33088 13.6796C3.36536 13.7686 3.42293 13.8456 3.49708 13.902C3.57123 13.9584 3.65898 13.9919 3.75039 13.9987C3.8418 14.0055 3.9332 13.9854 4.01424 13.9406L7.50003 12.0214L10.9858 13.9406C11.081 13.9936 11.1915 14.0113 11.2974 13.992C11.5645 13.9438 11.7441 13.6786 11.698 13.3989L11.0319 9.33399L13.8515 6.45527C13.9283 6.37651 13.9789 6.27364 13.9943 6.16113C14.0357 5.87985 13.8484 5.61946 13.5798 5.57767Z" fill="#FFD704"/>
</svg>
