<svg width="60" height="60" viewBox="0 0 60 60" fill="none" xmlns="http://www.w3.org/2000/svg">
<circle cx="30" cy="30" r="29" stroke="#3D7FFF" stroke-width="2"/>
<path d="M38.75 28.7152H23.925L28.4625 23.11C28.6747 22.8475 28.7768 22.509 28.7463 22.169C28.7158 21.8291 28.5553 21.5155 28.3 21.2973C28.0447 21.0791 27.7156 20.9741 27.3851 21.0054C27.0546 21.0368 26.7497 21.2019 26.5375 21.4644L20.2875 29.178C20.2455 29.2394 20.2078 29.3038 20.175 29.3709C20.175 29.4351 20.175 29.4737 20.0875 29.538C20.0308 29.6854 20.0012 29.8423 20 30.0008C20.0012 30.1593 20.0308 30.3162 20.0875 30.4636C20.0875 30.5279 20.0875 30.5665 20.175 30.6307C20.2078 30.6978 20.2455 30.7622 20.2875 30.8236L26.5375 38.5372C26.655 38.6823 26.8022 38.799 26.9686 38.879C27.1349 38.959 27.3164 39.0003 27.5 39C27.7921 39.0006 28.0751 38.896 28.3 38.7043C28.4266 38.5964 28.5312 38.4638 28.6079 38.3143C28.6846 38.1647 28.7318 38.001 28.7469 37.8326C28.762 37.6643 28.7447 37.4945 28.6959 37.333C28.6471 37.1715 28.5678 37.0215 28.4625 36.8916L23.925 31.2864H38.75C39.0815 31.2864 39.3995 31.151 39.6339 30.9099C39.8683 30.6688 40 30.3418 40 30.0008C40 29.6598 39.8683 29.3328 39.6339 29.0917C39.3995 28.8507 39.0815 28.7152 38.75 28.7152Z" fill="#3D7FFF"/>
</svg>
