<svg width="60" height="60" viewBox="0 0 60 60" fill="none" xmlns="http://www.w3.org/2000/svg">
<circle cx="30" cy="30" r="29" transform="rotate(-180 30 30)" stroke="#3D7FFF" stroke-width="2"/>
<path d="M21.25 31.2848L36.075 31.2848L31.5375 36.89C31.3253 37.1525 31.2232 37.491 31.2537 37.831C31.2842 38.1709 31.4447 38.4845 31.7 38.7027C31.9553 38.9209 32.2844 39.0259 32.6149 38.9946C32.9454 38.9632 33.2503 38.7981 33.4625 38.5356L39.7125 30.822C39.7545 30.7606 39.7922 30.6962 39.825 30.6291C39.825 30.5649 39.825 30.5263 39.9125 30.462C39.9692 30.3146 39.9988 30.1577 40 29.9992C39.9988 29.8407 39.9692 29.6838 39.9125 29.5364C39.9125 29.4721 39.9125 29.4335 39.825 29.3693C39.7922 29.3022 39.7545 29.2378 39.7125 29.1764L33.4625 21.4628C33.345 21.3177 33.1978 21.201 33.0314 21.121C32.8651 21.041 32.6836 20.9997 32.5 21C32.2079 20.9994 31.9249 21.104 31.7 21.2957C31.5734 21.4036 31.4688 21.5362 31.3921 21.6857C31.3154 21.8353 31.2682 21.999 31.2531 22.1674C31.238 22.3357 31.2553 22.5055 31.3041 22.667C31.3529 22.8285 31.4322 22.9785 31.5375 23.1084L36.075 28.7136H21.25C20.9185 28.7136 20.6005 28.849 20.3661 29.0901C20.1317 29.3312 20 29.6582 20 29.9992C20 30.3402 20.1317 30.6672 20.3661 30.9083C20.6005 31.1493 20.9185 31.2848 21.25 31.2848Z" fill="#3D7FFF"/>
</svg>
